<svg width="333" height="141" viewBox="0 0 333 141" fill="none" xmlns="http://www.w3.org/2000/svg">
<path d="M0.710772 141V134.796L49.7788 83.284C64.6934 67.6173 72.1508 54.4573 72.1508 43.804C72.1508 34.78 69.2054 27.5733 63.3148 22.184C57.5494 16.6693 50.0294 13.912 40.7548 13.912C24.7121 13.912 13.4948 20.9933 7.10277 35.156L1.46277 31.772C4.97211 24.0013 10.1734 17.9853 17.0668 13.724C24.0854 9.46266 31.9814 7.332 40.7548 7.332C51.4081 7.332 60.4321 10.6533 67.8268 17.296C75.2214 23.8133 78.9188 32.6493 78.9188 43.804C78.9188 55.9613 70.7721 70.688 54.4788 87.984L10.1108 134.42H82.4908V141H0.710772ZM190.275 50.76C190.275 60.536 187.58 69.2467 182.191 76.892L137.071 141H129.363L164.895 90.428C158.879 92.8093 152.612 94 146.095 94C133.186 94 122.595 89.9893 114.323 81.968C106.051 73.8213 101.915 63.4187 101.915 50.76C101.915 37.976 106.051 27.5733 114.323 19.552C122.595 11.4053 133.186 7.332 146.095 7.332C159.004 7.332 169.595 11.4053 177.867 19.552C186.139 27.5733 190.275 37.976 190.275 50.76ZM108.683 50.76C108.683 61.4133 112.067 70.1867 118.835 77.08C125.603 83.9733 134.69 87.42 146.095 87.42C157.375 87.42 166.399 83.9733 173.167 77.08C179.935 70.1867 183.319 61.4133 183.319 50.76C183.319 39.9813 179.935 31.1453 173.167 24.252C166.524 17.3587 157.5 13.912 146.095 13.912C134.69 13.912 125.603 17.3587 118.835 24.252C112.067 31.1453 108.683 39.9813 108.683 50.76ZM204.037 9.39999H282.245V15.792L229.793 141H222.649L275.289 15.792H204.037V9.39999Z" fill="#FDFDFD"/>
<g filter="url(#filter0_d_0_1)">
<path d="M302.338 14.808L308.074 9H305.386L300.202 14.304V4.2H298.114V21H300.202V15.312L305.674 21H308.266L302.338 14.808ZM323.647 8.688C321.967 8.688 320.719 9.36 319.879 10.728C319.135 9.36 317.959 8.688 316.351 8.688C314.791 8.688 313.591 9.336 312.775 10.608V9H310.687V21H312.775V14.328C312.775 11.904 314.095 10.68 315.847 10.68C317.407 10.68 318.391 11.76 318.391 13.608V21H320.479V14.328C320.479 11.856 321.631 10.68 323.431 10.68C325.039 10.68 326.071 11.76 326.071 13.608V21H328.159V13.536C328.159 10.56 326.335 8.688 323.647 8.688Z" fill="white"/>
</g>
<defs>
<filter id="filter0_d_0_1" x="294.114" y="0.199999" width="38.0458" height="24.8" filterUnits="userSpaceOnUse" color-interpolation-filters="sRGB">
<feFlood flood-opacity="0" result="BackgroundImageFix"/>
<feColorMatrix in="SourceAlpha" type="matrix" values="0 0 0 0 0 0 0 0 0 0 0 0 0 0 0 0 0 0 127 0" result="hardAlpha"/>
<feOffset/>
<feGaussianBlur stdDeviation="2"/>
<feColorMatrix type="matrix" values="0 0 0 0 1 0 0 0 0 1 0 0 0 0 1 0 0 0 0.25 0"/>
<feBlend mode="normal" in2="BackgroundImageFix" result="effect1_dropShadow_0_1"/>
<feBlend mode="normal" in="SourceGraphic" in2="effect1_dropShadow_0_1" result="shape"/>
</filter>
</defs>
</svg>
