<svg width="226" height="236" viewBox="0 0 226 236" fill="none" xmlns="http://www.w3.org/2000/svg">
<g filter="url(#filter0_dd_1_28)">
<rect x="176" y="181" width="126" height="126" rx="63" transform="rotate(-180 176 181)" fill="url(#paint0_linear_1_28)"/>
</g>
<g filter="url(#filter1_f_1_28)">
<rect x="177" y="182" width="128" height="128" rx="64" transform="rotate(-180 177 182)" fill="url(#paint1_linear_1_28)"/>
</g>
<rect x="172.5" y="177.5" width="119" height="119" rx="59.5" transform="rotate(-180 172.5 177.5)" fill="url(#paint2_linear_1_28)" stroke="#058DD9"/>
<g filter="url(#filter2_f_1_28)">
<rect x="173" y="178" width="120" height="120" rx="60" transform="rotate(-180 173 178)" fill="url(#paint3_linear_1_28)"/>
</g>
<g filter="url(#filter3_dd_1_28)">
<path d="M122.333 117H103.667C102.194 117 101 118.194 101 119.667V129C101 130.473 102.194 131.667 103.667 131.667H122.333C123.806 131.667 125 130.473 125 129V119.667C125 118.194 123.806 117 122.333 117Z" stroke="white" stroke-width="3"/>
<path d="M106.332 117V111.667C106.332 109.899 107.034 108.203 108.285 106.953C109.535 105.702 111.231 105 112.999 105C114.767 105 116.463 105.702 117.713 106.953C118.963 108.203 119.665 109.899 119.665 111.667V117" stroke="white" stroke-width="3"/>
<g filter="url(#filter4_dd_1_28)">
<circle cx="113" cy="124" r="2" fill="white"/>
</g>
</g>
<path d="M44.8639 205.119H41.0479V216H38.3389V205.119H34.5229V202.941H44.8639V205.119ZM49.0245 212.121C48.4185 212.151 47.9145 212.205 47.5125 212.283C47.1105 212.355 46.7895 212.451 46.5495 212.571C46.3155 212.691 46.1475 212.829 46.0455 212.985C45.9495 213.135 45.9015 213.3 45.9015 213.48C45.9015 213.84 46.0005 214.095 46.1985 214.245C46.4025 214.395 46.6845 214.47 47.0445 214.47C47.4585 214.47 47.8155 214.398 48.1155 214.254C48.4215 214.104 48.7245 213.873 49.0245 213.561V212.121ZM43.9665 208.008C44.5125 207.516 45.1155 207.15 45.7755 206.91C46.4355 206.664 47.1495 206.541 47.9175 206.541C48.4695 206.541 48.9615 206.631 49.3935 206.811C49.8315 206.991 50.2005 207.243 50.5005 207.567C50.8065 207.885 51.0405 208.266 51.2025 208.71C51.3645 209.154 51.4455 209.64 51.4455 210.168V216H50.3115C50.0775 216 49.8975 215.967 49.7715 215.901C49.6515 215.835 49.5525 215.697 49.4745 215.487L49.2765 214.893C49.0425 215.097 48.8145 215.277 48.5925 215.433C48.3765 215.589 48.1515 215.721 47.9175 215.829C47.6835 215.931 47.4315 216.009 47.1615 216.063C46.8975 216.117 46.6005 216.144 46.2705 216.144C45.8625 216.144 45.4905 216.09 45.1545 215.982C44.8185 215.874 44.5275 215.715 44.2815 215.505C44.0415 215.289 43.8555 215.022 43.7235 214.704C43.5915 214.386 43.5255 214.02 43.5255 213.606C43.5255 213.264 43.6125 212.922 43.7865 212.58C43.9605 212.238 44.2575 211.929 44.6775 211.653C45.1035 211.371 45.6675 211.14 46.3695 210.96C47.0775 210.774 47.9625 210.669 49.0245 210.645V210.168C49.0245 209.586 48.9015 209.16 48.6555 208.89C48.4095 208.614 48.0555 208.476 47.5935 208.476C47.2515 208.476 46.9665 208.518 46.7385 208.602C46.5105 208.68 46.3095 208.767 46.1355 208.863C45.9675 208.953 45.8085 209.04 45.6585 209.124C45.5085 209.202 45.3345 209.241 45.1365 209.241C44.9625 209.241 44.8155 209.199 44.6955 209.115C44.5815 209.025 44.4855 208.92 44.4075 208.8L43.9665 208.008ZM55.8684 213.552C56.1024 213.822 56.3544 214.011 56.6244 214.119C56.9004 214.227 57.1944 214.281 57.5064 214.281C57.8064 214.281 58.0794 214.224 58.3254 214.11C58.5714 213.996 58.7814 213.819 58.9554 213.579C59.1354 213.333 59.2734 213.021 59.3694 212.643C59.4654 212.265 59.5134 211.815 59.5134 211.293C59.5134 210.777 59.4714 210.339 59.3874 209.979C59.3094 209.619 59.1954 209.328 59.0454 209.106C58.9014 208.884 58.7244 208.725 58.5144 208.629C58.3044 208.527 58.0704 208.476 57.8124 208.476C57.3744 208.476 57.0054 208.563 56.7054 208.737C56.4114 208.905 56.1324 209.154 55.8684 209.484V213.552ZM55.7244 207.936C55.9104 207.732 56.1084 207.546 56.3184 207.378C56.5284 207.204 56.7534 207.057 56.9934 206.937C57.2334 206.811 57.4914 206.715 57.7674 206.649C58.0434 206.577 58.3434 206.541 58.6674 206.541C59.1654 206.541 59.6214 206.649 60.0354 206.865C60.4554 207.075 60.8154 207.384 61.1154 207.792C61.4154 208.194 61.6494 208.689 61.8174 209.277C61.9854 209.865 62.0694 210.537 62.0694 211.293C62.0694 211.989 61.9734 212.634 61.7814 213.228C61.5954 213.816 61.3284 214.326 60.9804 214.758C60.6324 215.19 60.2124 215.529 59.7204 215.775C59.2344 216.015 58.6914 216.135 58.0914 216.135C57.5874 216.135 57.1584 216.06 56.8044 215.91C56.4564 215.76 56.1444 215.556 55.8684 215.298V218.997H53.3844V206.721H54.9144C55.2264 206.721 55.4334 206.865 55.5354 207.153L55.7244 207.936ZM71.1431 216.144C70.7231 216.144 70.3511 216.084 70.0271 215.964C69.7031 215.838 69.4301 215.661 69.2081 215.433C68.9861 215.205 68.8181 214.929 68.7041 214.605C68.5901 214.281 68.5331 213.915 68.5331 213.507V208.503H67.6601C67.5281 208.503 67.4141 208.461 67.3181 208.377C67.2281 208.293 67.1831 208.167 67.1831 207.999V207.027L68.6681 206.757L69.1721 204.354C69.2381 204.084 69.4211 203.949 69.7211 203.949H71.0171V206.775H73.4111V208.503H71.0171V213.345C71.0171 213.603 71.0771 213.807 71.1971 213.957C71.3231 214.107 71.5001 214.182 71.7281 214.182C71.8481 214.182 71.9501 214.17 72.0341 214.146C72.1181 214.116 72.1901 214.086 72.2501 214.056C72.3101 214.02 72.3641 213.99 72.4121 213.966C72.4661 213.936 72.5201 213.921 72.5741 213.921C72.6461 213.921 72.7061 213.939 72.7541 213.975C72.8021 214.005 72.8501 214.059 72.8981 214.137L73.6451 215.325C73.3031 215.595 72.9161 215.799 72.4841 215.937C72.0521 216.075 71.6051 216.144 71.1431 216.144ZM78.8389 206.577C79.5349 206.577 80.1679 206.688 80.7379 206.91C81.3079 207.132 81.7969 207.45 82.2049 207.864C82.6129 208.272 82.9279 208.77 83.1499 209.358C83.3719 209.946 83.4829 210.609 83.4829 211.347C83.4829 212.085 83.3719 212.751 83.1499 213.345C82.9279 213.933 82.6129 214.434 82.2049 214.848C81.7969 215.262 81.3079 215.58 80.7379 215.802C80.1679 216.024 79.5349 216.135 78.8389 216.135C78.1369 216.135 77.4979 216.024 76.9219 215.802C76.3519 215.58 75.8629 215.262 75.4549 214.848C75.0469 214.434 74.7289 213.933 74.5009 213.345C74.2789 212.751 74.1679 212.085 74.1679 211.347C74.1679 210.609 74.2789 209.946 74.5009 209.358C74.7289 208.77 75.0469 208.272 75.4549 207.864C75.8629 207.45 76.3519 207.132 76.9219 206.91C77.4979 206.688 78.1369 206.577 78.8389 206.577ZM78.8389 214.272C79.5469 214.272 80.0719 214.029 80.4139 213.543C80.7559 213.051 80.9269 212.322 80.9269 211.356C80.9269 210.396 80.7559 209.673 80.4139 209.187C80.0719 208.695 79.5469 208.449 78.8389 208.449C78.1129 208.449 77.5789 208.695 77.2369 209.187C76.8949 209.673 76.7239 210.396 76.7239 211.356C76.7239 212.322 76.8949 213.051 77.2369 213.543C77.5789 214.029 78.1129 214.272 78.8389 214.272ZM93.4991 206.577C94.1951 206.577 94.8281 206.688 95.3981 206.91C95.9681 207.132 96.4571 207.45 96.8651 207.864C97.2731 208.272 97.5881 208.77 97.8101 209.358C98.0321 209.946 98.1431 210.609 98.1431 211.347C98.1431 212.085 98.0321 212.751 97.8101 213.345C97.5881 213.933 97.2731 214.434 96.8651 214.848C96.4571 215.262 95.9681 215.58 95.3981 215.802C94.8281 216.024 94.1951 216.135 93.4991 216.135C92.7971 216.135 92.1581 216.024 91.5821 215.802C91.0121 215.58 90.5231 215.262 90.1151 214.848C89.7071 214.434 89.3891 213.933 89.1611 213.345C88.9391 212.751 88.8281 212.085 88.8281 211.347C88.8281 210.609 88.9391 209.946 89.1611 209.358C89.3891 208.77 89.7071 208.272 90.1151 207.864C90.5231 207.45 91.0121 207.132 91.5821 206.91C92.1581 206.688 92.7971 206.577 93.4991 206.577ZM93.4991 214.272C94.2071 214.272 94.7321 214.029 95.0741 213.543C95.4161 213.051 95.5871 212.322 95.5871 211.356C95.5871 210.396 95.4161 209.673 95.0741 209.187C94.7321 208.695 94.2071 208.449 93.4991 208.449C92.7731 208.449 92.2391 208.695 91.8971 209.187C91.5551 209.673 91.3841 210.396 91.3841 211.356C91.3841 212.322 91.5551 213.051 91.8971 213.543C92.2391 214.029 92.7731 214.272 93.4991 214.272ZM102.187 213.552C102.421 213.822 102.673 214.011 102.943 214.119C103.219 214.227 103.513 214.281 103.825 214.281C104.125 214.281 104.398 214.224 104.644 214.11C104.89 213.996 105.1 213.819 105.274 213.579C105.454 213.333 105.592 213.021 105.688 212.643C105.784 212.265 105.832 211.815 105.832 211.293C105.832 210.777 105.79 210.339 105.706 209.979C105.628 209.619 105.514 209.328 105.364 209.106C105.22 208.884 105.043 208.725 104.833 208.629C104.623 208.527 104.389 208.476 104.131 208.476C103.693 208.476 103.324 208.563 103.024 208.737C102.73 208.905 102.451 209.154 102.187 209.484V213.552ZM102.043 207.936C102.229 207.732 102.427 207.546 102.637 207.378C102.847 207.204 103.072 207.057 103.312 206.937C103.552 206.811 103.81 206.715 104.086 206.649C104.362 206.577 104.662 206.541 104.986 206.541C105.484 206.541 105.94 206.649 106.354 206.865C106.774 207.075 107.134 207.384 107.434 207.792C107.734 208.194 107.968 208.689 108.136 209.277C108.304 209.865 108.388 210.537 108.388 211.293C108.388 211.989 108.292 212.634 108.1 213.228C107.914 213.816 107.647 214.326 107.299 214.758C106.951 215.19 106.531 215.529 106.039 215.775C105.553 216.015 105.01 216.135 104.41 216.135C103.906 216.135 103.477 216.06 103.123 215.91C102.775 215.76 102.463 215.556 102.187 215.298V218.997H99.7028V206.721H101.233C101.545 206.721 101.752 206.865 101.854 207.153L102.043 207.936ZM115.872 210.267C115.872 210.009 115.836 209.763 115.764 209.529C115.698 209.295 115.59 209.088 115.44 208.908C115.29 208.728 115.101 208.587 114.873 208.485C114.645 208.377 114.372 208.323 114.054 208.323C113.46 208.323 112.995 208.491 112.659 208.827C112.323 209.163 112.104 209.643 112.002 210.267H115.872ZM111.966 211.743C112.044 212.613 112.29 213.249 112.704 213.651C113.124 214.053 113.67 214.254 114.342 214.254C114.684 214.254 114.978 214.215 115.224 214.137C115.476 214.053 115.695 213.963 115.881 213.867C116.073 213.765 116.244 213.675 116.394 213.597C116.55 213.513 116.703 213.471 116.853 213.471C117.045 213.471 117.195 213.543 117.303 213.687L118.023 214.587C117.759 214.893 117.468 215.148 117.15 215.352C116.832 215.55 116.502 215.709 116.16 215.829C115.818 215.943 115.473 216.021 115.125 216.063C114.777 216.111 114.441 216.135 114.117 216.135C113.469 216.135 112.863 216.03 112.299 215.82C111.741 215.604 111.252 215.289 110.832 214.875C110.418 214.455 110.091 213.936 109.851 213.318C109.611 212.7 109.491 211.983 109.491 211.167C109.491 210.537 109.593 209.943 109.797 209.385C110.007 208.827 110.307 208.341 110.697 207.927C111.087 207.513 111.561 207.186 112.119 206.946C112.677 206.7 113.307 206.577 114.009 206.577C114.603 206.577 115.149 206.673 115.647 206.865C116.151 207.051 116.583 207.324 116.943 207.684C117.309 208.044 117.591 208.488 117.789 209.016C117.993 209.538 118.095 210.135 118.095 210.807C118.095 210.993 118.086 211.146 118.068 211.266C118.05 211.386 118.02 211.482 117.978 211.554C117.936 211.626 117.879 211.677 117.807 211.707C117.735 211.731 117.642 211.743 117.528 211.743H111.966ZM121.94 207.801C122.126 207.621 122.318 207.456 122.516 207.306C122.72 207.156 122.933 207.027 123.155 206.919C123.383 206.811 123.626 206.727 123.884 206.667C124.148 206.607 124.433 206.577 124.739 206.577C125.243 206.577 125.69 206.664 126.08 206.838C126.47 207.012 126.797 207.255 127.061 207.567C127.331 207.879 127.532 208.251 127.664 208.683C127.802 209.115 127.871 209.589 127.871 210.105V216H125.396V210.105C125.396 209.589 125.276 209.19 125.036 208.908C124.796 208.62 124.442 208.476 123.974 208.476C123.626 208.476 123.299 208.551 122.993 208.701C122.687 208.851 122.396 209.061 122.12 209.331V216H119.636V206.721H121.166C121.478 206.721 121.685 206.865 121.787 207.153L121.94 207.801ZM137.325 216.144C136.905 216.144 136.533 216.084 136.209 215.964C135.885 215.838 135.612 215.661 135.39 215.433C135.168 215.205 135 214.929 134.886 214.605C134.772 214.281 134.715 213.915 134.715 213.507V208.503H133.842C133.71 208.503 133.596 208.461 133.5 208.377C133.41 208.293 133.365 208.167 133.365 207.999V207.027L134.85 206.757L135.354 204.354C135.42 204.084 135.603 203.949 135.903 203.949H137.199V206.775H139.593V208.503H137.199V213.345C137.199 213.603 137.259 213.807 137.379 213.957C137.505 214.107 137.682 214.182 137.91 214.182C138.03 214.182 138.132 214.17 138.216 214.146C138.3 214.116 138.372 214.086 138.432 214.056C138.492 214.02 138.546 213.99 138.594 213.966C138.648 213.936 138.702 213.921 138.756 213.921C138.828 213.921 138.888 213.939 138.936 213.975C138.984 214.005 139.032 214.059 139.08 214.137L139.827 215.325C139.485 215.595 139.098 215.799 138.666 215.937C138.234 216.075 137.787 216.144 137.325 216.144ZM143.407 207.63C143.581 207.474 143.761 207.333 143.947 207.207C144.139 207.075 144.34 206.964 144.55 206.874C144.766 206.778 144.994 206.706 145.234 206.658C145.48 206.604 145.744 206.577 146.026 206.577C146.53 206.577 146.977 206.664 147.367 206.838C147.757 207.012 148.084 207.255 148.348 207.567C148.618 207.879 148.819 208.251 148.951 208.683C149.089 209.115 149.158 209.589 149.158 210.105V216H146.683V210.105C146.683 209.589 146.563 209.19 146.323 208.908C146.083 208.62 145.729 208.476 145.261 208.476C144.913 208.476 144.586 208.551 144.28 208.701C143.974 208.851 143.683 209.061 143.407 209.331V216H140.923V202.581H143.407V207.63ZM157.022 210.267C157.022 210.009 156.986 209.763 156.914 209.529C156.848 209.295 156.74 209.088 156.59 208.908C156.44 208.728 156.251 208.587 156.023 208.485C155.795 208.377 155.522 208.323 155.204 208.323C154.61 208.323 154.145 208.491 153.809 208.827C153.473 209.163 153.254 209.643 153.152 210.267H157.022ZM153.116 211.743C153.194 212.613 153.44 213.249 153.854 213.651C154.274 214.053 154.82 214.254 155.492 214.254C155.834 214.254 156.128 214.215 156.374 214.137C156.626 214.053 156.845 213.963 157.031 213.867C157.223 213.765 157.394 213.675 157.544 213.597C157.7 213.513 157.853 213.471 158.003 213.471C158.195 213.471 158.345 213.543 158.453 213.687L159.173 214.587C158.909 214.893 158.618 215.148 158.3 215.352C157.982 215.55 157.652 215.709 157.31 215.829C156.968 215.943 156.623 216.021 156.275 216.063C155.927 216.111 155.591 216.135 155.267 216.135C154.619 216.135 154.013 216.03 153.449 215.82C152.891 215.604 152.402 215.289 151.982 214.875C151.568 214.455 151.241 213.936 151.001 213.318C150.761 212.7 150.641 211.983 150.641 211.167C150.641 210.537 150.743 209.943 150.947 209.385C151.157 208.827 151.457 208.341 151.847 207.927C152.237 207.513 152.711 207.186 153.269 206.946C153.827 206.7 154.457 206.577 155.159 206.577C155.753 206.577 156.299 206.673 156.797 206.865C157.301 207.051 157.733 207.324 158.093 207.684C158.459 208.044 158.741 208.488 158.939 209.016C159.143 209.538 159.245 210.135 159.245 210.807C159.245 210.993 159.236 211.146 159.218 211.266C159.2 211.386 159.17 211.482 159.128 211.554C159.086 211.626 159.029 211.677 158.957 211.707C158.885 211.731 158.792 211.743 158.678 211.743H153.116ZM171.79 208.791C171.718 208.887 171.646 208.962 171.574 209.016C171.502 209.064 171.4 209.088 171.268 209.088C171.148 209.088 171.031 209.055 170.917 208.989C170.809 208.917 170.683 208.842 170.539 208.764C170.395 208.68 170.224 208.605 170.026 208.539C169.828 208.467 169.582 208.431 169.288 208.431C168.916 208.431 168.592 208.5 168.316 208.638C168.046 208.77 167.821 208.962 167.641 209.214C167.461 209.466 167.326 209.772 167.236 210.132C167.152 210.492 167.11 210.897 167.11 211.347C167.11 212.295 167.299 213.021 167.677 213.525C168.061 214.029 168.583 214.281 169.243 214.281C169.471 214.281 169.666 214.263 169.828 214.227C169.996 214.185 170.14 214.134 170.26 214.074C170.386 214.014 170.494 213.948 170.584 213.876C170.674 213.804 170.758 213.738 170.836 213.678C170.92 213.618 171.001 213.57 171.079 213.534C171.163 213.492 171.256 213.471 171.358 213.471C171.55 213.471 171.7 213.543 171.808 213.687L172.519 214.587C172.255 214.893 171.973 215.148 171.673 215.352C171.373 215.55 171.061 215.709 170.737 215.829C170.419 215.943 170.095 216.021 169.765 216.063C169.435 216.111 169.108 216.135 168.784 216.135C168.214 216.135 167.674 216.03 167.164 215.82C166.654 215.604 166.207 215.292 165.823 214.884C165.439 214.476 165.133 213.975 164.905 213.381C164.683 212.787 164.572 212.109 164.572 211.347C164.572 210.669 164.671 210.039 164.869 209.457C165.067 208.875 165.358 208.371 165.742 207.945C166.126 207.519 166.6 207.186 167.164 206.946C167.734 206.7 168.391 206.577 169.135 206.577C169.843 206.577 170.464 206.691 170.998 206.919C171.532 207.147 172.012 207.477 172.438 207.909L171.79 208.791ZM178.628 212.121C178.022 212.151 177.518 212.205 177.116 212.283C176.714 212.355 176.393 212.451 176.153 212.571C175.919 212.691 175.751 212.829 175.649 212.985C175.553 213.135 175.505 213.3 175.505 213.48C175.505 213.84 175.604 214.095 175.802 214.245C176.006 214.395 176.288 214.47 176.648 214.47C177.062 214.47 177.419 214.398 177.719 214.254C178.025 214.104 178.328 213.873 178.628 213.561V212.121ZM173.57 208.008C174.116 207.516 174.719 207.15 175.379 206.91C176.039 206.664 176.753 206.541 177.521 206.541C178.073 206.541 178.565 206.631 178.997 206.811C179.435 206.991 179.804 207.243 180.104 207.567C180.41 207.885 180.644 208.266 180.806 208.71C180.968 209.154 181.049 209.64 181.049 210.168V216H179.915C179.681 216 179.501 215.967 179.375 215.901C179.255 215.835 179.156 215.697 179.078 215.487L178.88 214.893C178.646 215.097 178.418 215.277 178.196 215.433C177.98 215.589 177.755 215.721 177.521 215.829C177.287 215.931 177.035 216.009 176.765 216.063C176.501 216.117 176.204 216.144 175.874 216.144C175.466 216.144 175.094 216.09 174.758 215.982C174.422 215.874 174.131 215.715 173.885 215.505C173.645 215.289 173.459 215.022 173.327 214.704C173.195 214.386 173.129 214.02 173.129 213.606C173.129 213.264 173.216 212.922 173.39 212.58C173.564 212.238 173.861 211.929 174.281 211.653C174.707 211.371 175.271 211.14 175.973 210.96C176.681 210.774 177.566 210.669 178.628 210.645V210.168C178.628 209.586 178.505 209.16 178.259 208.89C178.013 208.614 177.659 208.476 177.197 208.476C176.855 208.476 176.57 208.518 176.342 208.602C176.114 208.68 175.913 208.767 175.739 208.863C175.571 208.953 175.412 209.04 175.262 209.124C175.112 209.202 174.938 209.241 174.74 209.241C174.566 209.241 174.419 209.199 174.299 209.115C174.185 209.025 174.089 208.92 174.011 208.8L173.57 208.008ZM185.319 208.251C185.613 207.723 185.952 207.306 186.336 207C186.72 206.694 187.17 206.541 187.686 206.541C188.106 206.541 188.448 206.64 188.712 206.838L188.55 208.674C188.52 208.794 188.472 208.878 188.406 208.926C188.346 208.968 188.262 208.989 188.154 208.989C188.058 208.989 187.92 208.977 187.74 208.953C187.56 208.923 187.392 208.908 187.236 208.908C187.008 208.908 186.804 208.941 186.624 209.007C186.45 209.073 186.294 209.166 186.156 209.286C186.018 209.406 185.892 209.553 185.778 209.727C185.67 209.901 185.568 210.099 185.472 210.321V216H182.988V206.721H184.455C184.707 206.721 184.881 206.766 184.977 206.856C185.073 206.946 185.142 207.102 185.184 207.324L185.319 208.251Z" fill="#E6E6E6"/>
<defs>
<filter id="filter0_dd_1_28" x="1.52588e-05" y="0" width="226" height="236" filterUnits="userSpaceOnUse" color-interpolation-filters="sRGB">
<feFlood flood-opacity="0" result="BackgroundImageFix"/>
<feColorMatrix in="SourceAlpha" type="matrix" values="0 0 0 0 0 0 0 0 0 0 0 0 0 0 0 0 0 0 127 0" result="hardAlpha"/>
<feOffset dx="-10" dy="-15"/>
<feGaussianBlur stdDeviation="20"/>
<feColorMatrix type="matrix" values="0 0 0 0 0.183073 0 0 0 0 0.224583 0 0 0 0 0.2375 0 0 0 1 0"/>
<feBlend mode="normal" in2="BackgroundImageFix" result="effect1_dropShadow_1_28"/>
<feColorMatrix in="SourceAlpha" type="matrix" values="0 0 0 0 0 0 0 0 0 0 0 0 0 0 0 0 0 0 127 0" result="hardAlpha"/>
<feOffset dx="10" dy="15"/>
<feGaussianBlur stdDeviation="20"/>
<feColorMatrix type="matrix" values="0 0 0 0 0 0 0 0 0 0 0 0 0 0 0 0 0 0 1 0"/>
<feBlend mode="normal" in2="effect1_dropShadow_1_28" result="effect2_dropShadow_1_28"/>
<feBlend mode="normal" in="SourceGraphic" in2="effect2_dropShadow_1_28" result="shape"/>
</filter>
<filter id="filter1_f_1_28" x="48" y="53" width="130" height="130" filterUnits="userSpaceOnUse" color-interpolation-filters="sRGB">
<feFlood flood-opacity="0" result="BackgroundImageFix"/>
<feBlend mode="normal" in="SourceGraphic" in2="BackgroundImageFix" result="shape"/>
<feGaussianBlur stdDeviation="0.5" result="effect1_foregroundBlur_1_28"/>
</filter>
<filter id="filter2_f_1_28" x="52" y="57" width="122" height="122" filterUnits="userSpaceOnUse" color-interpolation-filters="sRGB">
<feFlood flood-opacity="0" result="BackgroundImageFix"/>
<feBlend mode="normal" in="SourceGraphic" in2="BackgroundImageFix" result="shape"/>
<feGaussianBlur stdDeviation="0.5" result="effect1_foregroundBlur_1_28"/>
</filter>
<filter id="filter3_dd_1_28" x="74.5" y="78.5" width="77" height="79.6667" filterUnits="userSpaceOnUse" color-interpolation-filters="sRGB">
<feFlood flood-opacity="0" result="BackgroundImageFix"/>
<feColorMatrix in="SourceAlpha" type="matrix" values="0 0 0 0 0 0 0 0 0 0 0 0 0 0 0 0 0 0 127 0" result="hardAlpha"/>
<feOffset/>
<feGaussianBlur stdDeviation="12.5"/>
<feColorMatrix type="matrix" values="0 0 0 0 0.14902 0 0 0 0 0.670588 0 0 0 0 0.968627 0 0 0 0.2 0"/>
<feBlend mode="normal" in2="BackgroundImageFix" result="effect1_dropShadow_1_28"/>
<feColorMatrix in="SourceAlpha" type="matrix" values="0 0 0 0 0 0 0 0 0 0 0 0 0 0 0 0 0 0 127 0" result="hardAlpha"/>
<feOffset/>
<feGaussianBlur stdDeviation="5"/>
<feColorMatrix type="matrix" values="0 0 0 0 0.3875 0 0 0 0 0.811538 0 0 0 0 1 0 0 0 0.5 0"/>
<feBlend mode="normal" in2="effect1_dropShadow_1_28" result="effect2_dropShadow_1_28"/>
<feBlend mode="normal" in="SourceGraphic" in2="effect2_dropShadow_1_28" result="shape"/>
</filter>
<filter id="filter4_dd_1_28" x="86" y="97" width="54" height="54" filterUnits="userSpaceOnUse" color-interpolation-filters="sRGB">
<feFlood flood-opacity="0" result="BackgroundImageFix"/>
<feColorMatrix in="SourceAlpha" type="matrix" values="0 0 0 0 0 0 0 0 0 0 0 0 0 0 0 0 0 0 127 0" result="hardAlpha"/>
<feOffset/>
<feGaussianBlur stdDeviation="12.5"/>
<feColorMatrix type="matrix" values="0 0 0 0 0.14902 0 0 0 0 0.670588 0 0 0 0 0.968627 0 0 0 0.2 0"/>
<feBlend mode="normal" in2="BackgroundImageFix" result="effect1_dropShadow_1_28"/>
<feColorMatrix in="SourceAlpha" type="matrix" values="0 0 0 0 0 0 0 0 0 0 0 0 0 0 0 0 0 0 127 0" result="hardAlpha"/>
<feOffset/>
<feGaussianBlur stdDeviation="5"/>
<feColorMatrix type="matrix" values="0 0 0 0 0.3875 0 0 0 0 0.811538 0 0 0 0 1 0 0 0 0.5 0"/>
<feBlend mode="normal" in2="effect1_dropShadow_1_28" result="effect2_dropShadow_1_28"/>
<feBlend mode="normal" in="SourceGraphic" in2="effect2_dropShadow_1_28" result="shape"/>
</filter>
<linearGradient id="paint0_linear_1_28" x1="280.523" y1="292.682" x2="196.045" y2="198.182" gradientUnits="userSpaceOnUse">
<stop stop-color="#11A8FD"/>
<stop offset="1" stop-color="#0081C9"/>
</linearGradient>
<linearGradient id="paint1_linear_1_28" x1="282.6" y1="294" x2="202.6" y2="196.4" gradientUnits="userSpaceOnUse">
<stop stop-color="#11A8FD"/>
<stop offset="1" stop-color="#0081C9"/>
</linearGradient>
<linearGradient id="paint2_linear_1_28" x1="272" y1="283" x2="197" y2="191.5" gradientUnits="userSpaceOnUse">
<stop stop-color="#005EA3"/>
<stop offset="1" stop-color="#11A8FD"/>
</linearGradient>
<linearGradient id="paint3_linear_1_28" x1="272" y1="283" x2="197" y2="191.5" gradientUnits="userSpaceOnUse">
<stop stop-color="#005EA3"/>
<stop offset="1" stop-color="#11A8FD"/>
</linearGradient>
</defs>
</svg>
